<mxfile host="app.diagrams.net" modified="2023-03-31T17:46:47.375Z" agent="Mozilla/5.0 (Windows NT 10.0; Win64; x64) AppleWebKit/537.36 (KHTML, like Gecko) Chrome/111.0.0.0 Safari/537.36" etag="_t5pQSjBSKhlMmFuKISk" version="21.1.2" type="device">
  <diagram name="Página-1" id="kafqpZeLi7XdwKmXiJNI">
    <mxGraphModel dx="1035" dy="569" grid="1" gridSize="10" guides="1" tooltips="1" connect="1" arrows="1" fold="1" page="1" pageScale="1" pageWidth="827" pageHeight="1169" math="0" shadow="0">
      <root>
        <mxCell id="0" />
        <mxCell id="1" parent="0" />
        <mxCell id="KlqMlO6U-CDNfU_j7yHm-2" value="" style="rounded=1;whiteSpace=wrap;html=1;fontSize=36;" parent="1" vertex="1">
          <mxGeometry x="124" y="80" width="580" height="80" as="geometry" />
        </mxCell>
        <mxCell id="KlqMlO6U-CDNfU_j7yHm-1" value="&lt;span style=&quot;font-size: 36px;&quot;&gt;&lt;b&gt;Diagrama - Exercício 1, Slide 2&lt;/b&gt;&lt;/span&gt;" style="text;html=1;strokeColor=none;fillColor=none;align=center;verticalAlign=middle;whiteSpace=wrap;rounded=0;" parent="1" vertex="1">
          <mxGeometry x="128" y="60" width="576" height="120" as="geometry" />
        </mxCell>
        <mxCell id="NBL88mhy68arzMHCjShc-17" style="edgeStyle=orthogonalEdgeStyle;rounded=0;orthogonalLoop=1;jettySize=auto;html=1;" parent="1" source="NBL88mhy68arzMHCjShc-13" target="NBL88mhy68arzMHCjShc-14" edge="1">
          <mxGeometry relative="1" as="geometry" />
        </mxCell>
        <mxCell id="NBL88mhy68arzMHCjShc-37" style="edgeStyle=orthogonalEdgeStyle;rounded=0;orthogonalLoop=1;jettySize=auto;html=1;entryX=0.5;entryY=1;entryDx=0;entryDy=0;curved=1;" parent="1" source="NBL88mhy68arzMHCjShc-13" target="NBL88mhy68arzMHCjShc-36" edge="1">
          <mxGeometry relative="1" as="geometry" />
        </mxCell>
        <mxCell id="NBL88mhy68arzMHCjShc-39" style="edgeStyle=orthogonalEdgeStyle;rounded=0;orthogonalLoop=1;jettySize=auto;html=1;entryX=0.5;entryY=0;entryDx=0;entryDy=0;curved=1;" parent="1" source="NBL88mhy68arzMHCjShc-13" target="NBL88mhy68arzMHCjShc-35" edge="1">
          <mxGeometry relative="1" as="geometry" />
        </mxCell>
        <mxCell id="NBL88mhy68arzMHCjShc-13" value="Aluno" style="whiteSpace=wrap;html=1;align=center;" parent="1" vertex="1">
          <mxGeometry x="128" y="410" width="100" height="40" as="geometry" />
        </mxCell>
        <mxCell id="NBL88mhy68arzMHCjShc-14" value="Realiza" style="shape=rhombus;perimeter=rhombusPerimeter;whiteSpace=wrap;html=1;align=center;" parent="1" vertex="1">
          <mxGeometry x="358" y="400" width="120" height="60" as="geometry" />
        </mxCell>
        <mxCell id="NBL88mhy68arzMHCjShc-34" style="edgeStyle=orthogonalEdgeStyle;rounded=0;orthogonalLoop=1;jettySize=auto;html=1;entryX=0.5;entryY=1;entryDx=0;entryDy=0;curved=1;" parent="1" source="NBL88mhy68arzMHCjShc-16" target="NBL88mhy68arzMHCjShc-22" edge="1">
          <mxGeometry relative="1" as="geometry" />
        </mxCell>
        <mxCell id="NBL88mhy68arzMHCjShc-43" style="edgeStyle=orthogonalEdgeStyle;rounded=0;orthogonalLoop=1;jettySize=auto;html=1;entryX=0.5;entryY=1;entryDx=0;entryDy=0;curved=1;" parent="1" source="NBL88mhy68arzMHCjShc-16" target="NBL88mhy68arzMHCjShc-42" edge="1">
          <mxGeometry relative="1" as="geometry" />
        </mxCell>
        <mxCell id="NBL88mhy68arzMHCjShc-44" style="edgeStyle=orthogonalEdgeStyle;rounded=0;orthogonalLoop=1;jettySize=auto;html=1;entryX=0.5;entryY=0;entryDx=0;entryDy=0;" parent="1" source="NBL88mhy68arzMHCjShc-16" target="NBL88mhy68arzMHCjShc-40" edge="1">
          <mxGeometry relative="1" as="geometry" />
        </mxCell>
        <mxCell id="2at8B4tksrl-nGrAMncA-6" style="edgeStyle=orthogonalEdgeStyle;rounded=0;orthogonalLoop=1;jettySize=auto;html=1;entryX=1;entryY=0.5;entryDx=0;entryDy=0;" edge="1" parent="1" source="NBL88mhy68arzMHCjShc-16" target="NBL88mhy68arzMHCjShc-14">
          <mxGeometry relative="1" as="geometry" />
        </mxCell>
        <mxCell id="NBL88mhy68arzMHCjShc-16" value="Trabalhos" style="whiteSpace=wrap;html=1;align=center;" parent="1" vertex="1">
          <mxGeometry x="598" y="410" width="100" height="40" as="geometry" />
        </mxCell>
        <mxCell id="NBL88mhy68arzMHCjShc-22" value="Título" style="ellipse;whiteSpace=wrap;html=1;align=center;" parent="1" vertex="1">
          <mxGeometry x="668" y="300" width="100" height="40" as="geometry" />
        </mxCell>
        <mxCell id="NBL88mhy68arzMHCjShc-35" value="Matrícula" style="ellipse;whiteSpace=wrap;html=1;align=center;fontStyle=4;" parent="1" vertex="1">
          <mxGeometry x="128" y="510" width="100" height="40" as="geometry" />
        </mxCell>
        <mxCell id="NBL88mhy68arzMHCjShc-36" value="Nome" style="ellipse;whiteSpace=wrap;html=1;align=center;" parent="1" vertex="1">
          <mxGeometry x="128" y="300" width="100" height="40" as="geometry" />
        </mxCell>
        <mxCell id="NBL88mhy68arzMHCjShc-40" value="Código" style="ellipse;whiteSpace=wrap;html=1;align=center;fontStyle=4;" parent="1" vertex="1">
          <mxGeometry x="598" y="500" width="100" height="40" as="geometry" />
        </mxCell>
        <mxCell id="NBL88mhy68arzMHCjShc-42" value="Nota" style="ellipse;whiteSpace=wrap;html=1;align=center;" parent="1" vertex="1">
          <mxGeometry x="539" y="300" width="100" height="40" as="geometry" />
        </mxCell>
        <mxCell id="2at8B4tksrl-nGrAMncA-3" value="&lt;font color=&quot;#ff0000&quot;&gt;N&lt;/font&gt;" style="text;html=1;strokeColor=none;fillColor=none;align=center;verticalAlign=middle;whiteSpace=wrap;rounded=0;" vertex="1" parent="1">
          <mxGeometry x="228" y="400" width="60" height="30" as="geometry" />
        </mxCell>
        <mxCell id="2at8B4tksrl-nGrAMncA-4" value="&lt;font color=&quot;#ff0000&quot;&gt;N&lt;/font&gt;" style="text;html=1;strokeColor=none;fillColor=none;align=center;verticalAlign=middle;whiteSpace=wrap;rounded=0;" vertex="1" parent="1">
          <mxGeometry x="539" y="400" width="60" height="30" as="geometry" />
        </mxCell>
      </root>
    </mxGraphModel>
  </diagram>
</mxfile>
